<?xml version="1.0" encoding="utf-8"?>
<svg width="1023px" height="331px" viewBox="0 0 1023 331" version="1.1" xmlns:xlink="http://www.w3.org/1999/xlink" xmlns="http://www.w3.org/2000/svg">
  <defs>
    <path d="M843 0L903 0L903 156L843 156L843 0Z" id="path_1" />
    <path d="M963 49L1023 49L1023 264L963 264L963 49Z" id="path_2" />
    <path d="M873 192L933 192L933 300L873 300L873 192Z" id="path_3" />
    <clipPath id="clip_1">
      <use xlink:href="#path_1" />
    </clipPath>
    <clipPath id="clip_2">
      <use xlink:href="#path_2" />
    </clipPath>
    <clipPath id="clip_3">
      <use xlink:href="#path_3" />
    </clipPath>
  </defs>
  <g id="Rectangle">
    <use stroke="none" fill="#90A4AE" xlink:href="#path_1" fill-rule="evenodd" />
    <g clip-path="url(#clip_1)">
      <use xlink:href="#path_1" fill="none" stroke="#000000" stroke-width="6" />
    </g>
  </g>
  <g id="Rectangle-3">
    <use stroke="none" fill="#90A4AE" xlink:href="#path_2" fill-rule="evenodd" />
    <g clip-path="url(#clip_2)">
      <use xlink:href="#path_2" fill="none" stroke="#000000" stroke-width="6" />
    </g>
  </g>
  <g id="Rectangle-4">
    <use stroke="none" fill="#90A4AE" xlink:href="#path_3" fill-rule="evenodd" />
    <g clip-path="url(#clip_3)">
      <use xlink:href="#path_3" fill="none" stroke="#000000" stroke-width="6" />
    </g>
  </g>
  <g stroke="#000000" stroke-width="1" id="dxdelta" fill="#90A4AE" transform="translate(0 50)">
    <path d="M62.1973 215.524Q47.2119 215.524 35.7178 207.897Q24.2236 200.271 17.7246 186.359Q11.2256 172.395 11.2256 153.327Q11.2256 134.421 17.7246 120.51Q24.2236 106.599 35.7715 99.0254Q47.3193 91.4521 62.5195 91.4521Q74.2285 91.4521 81.0498 95.3193Q87.8711 99.1865 91.5234 104.074Q95.1758 108.962 97.1631 112.077L98.7744 112.077L98.7744 52.9951L117.197 52.9951L117.197 213L99.3652 213L99.3652 194.577L97.1631 194.577Q95.1758 197.854 91.416 202.849Q87.6562 207.79 80.6738 211.657Q73.7451 215.524 62.1973 215.524ZM291.03 207.897Q302.524 215.524 317.51 215.524Q329.058 215.524 335.986 211.657Q342.969 207.79 346.729 202.849Q350.488 197.854 352.476 194.577L354.678 194.577L354.678 213L372.51 213L372.51 52.9951L354.087 52.9951L354.087 112.077L352.476 112.077Q350.488 108.962 346.836 104.074Q343.184 99.1865 336.362 95.3193Q329.541 91.4521 317.832 91.4521Q302.632 91.4521 291.084 99.0254Q279.536 106.599 273.037 120.51Q266.538 134.421 266.538 153.327Q266.538 172.395 273.037 186.359Q279.536 200.271 291.03 207.897ZM555.288 213L555.288 52.9951L536.865 52.9951L536.865 213L555.288 213ZM641.26 93.0098L641.26 108.64L615.64 108.64L615.64 178.625Q615.64 186.413 617.949 190.28Q620.259 194.147 623.857 195.437Q627.51 196.726 631.538 196.726Q634.6 196.726 636.533 196.403Q638.521 196.027 639.702 195.812L643.462 212.355Q641.582 213.054 638.198 213.806Q634.868 214.558 629.712 214.558Q621.87 214.558 614.404 211.228Q606.938 207.844 602.051 200.969Q597.163 194.094 597.163 183.62L597.163 108.64L579.062 108.64L579.062 93.0098L597.163 93.0098L597.163 64.2744L615.64 64.2744L615.64 93.0098L641.26 93.0098ZM459.067 215.524Q441.719 215.524 429.15 207.844Q416.636 200.109 409.868 186.252Q403.101 172.395 403.101 153.918Q403.101 135.495 409.868 121.423Q416.636 107.297 428.774 99.4014Q440.913 91.4521 457.188 91.4521Q466.587 91.4521 475.718 94.5674Q484.849 97.6826 492.314 104.665Q499.834 111.647 504.292 123.142Q508.75 134.636 508.75 151.447L508.75 159.235L421.631 159.235Q422.275 178.464 432.534 188.723Q442.793 198.928 459.067 198.928Q469.917 198.928 477.705 194.255Q485.547 189.582 489.038 180.183L506.87 185.178Q502.681 198.767 490.005 207.146Q477.329 215.524 459.067 215.524ZM683.662 211.496Q692.954 215.793 704.395 215.793Q714.868 215.793 722.119 212.678Q729.37 209.562 733.721 205.104Q738.125 200.646 740.005 196.726L740.918 196.726L740.918 213L759.395 213L759.395 133.938Q759.395 119.65 754.668 111.164Q749.995 102.624 742.905 98.4346Q735.869 94.1914 728.296 92.8486Q720.776 91.4521 714.976 91.4521Q705.952 91.4521 696.606 93.9229Q687.261 96.3398 679.419 102.517Q671.577 108.64 666.851 119.543L684.36 125.827Q687.422 119.274 694.888 113.474Q702.407 107.673 715.62 107.673Q728.35 107.673 734.634 114.118Q740.918 120.51 740.918 132.058L740.918 132.702Q740.918 137.16 737.749 138.986Q734.634 140.759 727.759 141.511Q720.938 142.209 709.98 143.605Q701.655 144.733 693.384 146.56Q685.166 148.386 678.345 152.092Q671.577 155.744 667.495 162.189Q663.413 168.635 663.413 178.947Q663.413 190.656 668.892 198.928Q674.37 207.146 683.662 211.496ZM167.178 93.0098L195.913 142.048L224.702 93.0098L245.918 93.0098L207.192 153.005L245.918 213L224.702 213L195.913 166.433L167.178 213L145.962 213L184.043 153.005L145.962 93.0098L167.178 93.0098ZM64.668 198.928Q81.3184 198.928 90.1807 186.198Q99.043 173.415 99.043 153.005Q99.043 132.863 90.2881 120.456Q81.5869 107.995 64.668 107.995Q52.959 107.995 45.1709 114.011Q37.4365 119.973 33.5693 130.178Q29.7021 140.329 29.7021 153.005Q29.7021 165.788 33.623 176.262Q37.5977 186.682 45.332 192.805Q53.1201 198.928 64.668 198.928ZM345.493 186.198Q336.631 198.928 319.98 198.928Q308.433 198.928 300.645 192.805Q292.91 186.682 288.936 176.262Q285.015 165.788 285.015 153.005Q285.015 140.329 288.882 130.178Q292.749 119.973 300.483 114.011Q308.271 107.995 319.98 107.995Q336.899 107.995 345.601 120.456Q354.355 132.863 354.355 153.005Q354.355 173.415 345.493 186.198ZM421.631 143.337L490.005 143.337Q490.005 128.083 481.089 118.039Q472.173 107.995 457.188 107.995Q446.66 107.995 438.926 112.937Q431.191 117.824 426.733 125.935Q422.275 133.991 421.631 143.337ZM725.664 194.953Q718.145 199.25 707.188 199.25Q696.177 199.25 689.033 194.362Q681.89 189.475 681.89 179.86Q681.89 172.824 685.649 168.742Q689.463 164.66 695.64 162.619Q701.87 160.524 709.067 159.558Q712.021 159.182 716.802 158.591Q721.636 158 726.738 157.194Q731.895 156.335 735.815 155.207Q739.79 154.079 740.918 152.683L740.918 169.548Q740.918 177.067 737.051 183.889Q733.184 190.656 725.664 194.953Z" />
  </g>
  <g stroke="#000000" stroke-width="1" id="third-wave-edge-AI" fill="#90A4AE" transform="translate(306 270)">
    <path d="M53.6967 16.8581Q52.4638 16.8581 51.5849 16.028Q50.706 15.1979 50.706 14.0261Q50.706 12.8542 51.5849 12.0241Q52.4638 11.1818 53.6967 11.1818Q54.9174 11.1818 55.7963 12.0241Q56.6752 12.8542 56.6752 14.0261Q56.6752 15.1979 55.7963 16.028Q54.9174 16.8581 53.6967 16.8581ZM26.2019 48.6818L26.2019 32.2756Q26.2019 28.7111 28.2405 26.7702Q30.2791 24.8171 33.3796 24.8171Q36.3459 24.8171 38.0183 26.5993Q39.7029 28.3815 39.7029 31.6408L39.7029 48.6818L43.8899 48.6818L43.8899 31.3478Q43.8899 26.0988 41.3264 23.5842Q38.7751 21.0573 34.5881 21.0573Q31.3777 21.0573 29.449 22.3146Q27.5203 23.5597 26.5681 25.6716L26.2019 25.6716L26.2019 12.3171L22.0149 12.3171L22.0149 48.6818L26.2019 48.6818ZM92.332 49.2555Q88.9263 49.2555 86.314 47.5221Q83.7017 45.7887 82.2246 42.6271Q80.7476 39.4533 80.7476 35.1198Q80.7476 30.8229 82.2246 27.6613Q83.7017 24.4997 86.3262 22.7785Q88.9507 21.0573 92.4053 21.0573Q95.0664 21.0573 96.6167 21.9362Q98.167 22.8151 98.9971 23.926Q99.8272 25.0368 100.279 25.7448L100.645 25.7448L100.645 12.3171L104.832 12.3171L104.832 48.6818L100.779 48.6818L100.779 44.4948L100.279 44.4948Q99.8272 45.2394 98.9727 46.3747Q98.1182 47.4977 96.5313 48.3766Q94.9566 49.2555 92.332 49.2555ZM309.326 47.5221Q311.938 49.2555 315.344 49.2555Q317.969 49.2555 319.543 48.3766Q321.13 47.4977 321.985 46.3747Q322.839 45.2394 323.291 44.4948L323.792 44.4948L323.792 48.6818L327.844 48.6818L327.844 12.3171L323.657 12.3171L323.657 25.7448L323.291 25.7448Q322.839 25.0368 322.009 23.926Q321.179 22.8151 319.629 21.9362Q318.079 21.0573 315.417 21.0573Q311.963 21.0573 309.338 22.7785Q306.714 24.4997 305.237 27.6613Q303.76 30.8229 303.76 35.1198Q303.76 39.4533 305.237 42.6271Q306.714 45.7887 309.326 47.5221ZM411.792 48.6818L407.178 48.6818L420.533 12.3171L425.074 12.3171L438.428 48.6818L433.814 48.6818L430.152 38.3791L415.455 38.3791L411.792 48.6818ZM448.505 48.6818L448.505 12.3171L444.11 12.3171L444.11 48.6818L448.505 48.6818ZM15.6982 24.9636L15.6982 21.4113L9.87549 21.4113L9.87549 14.8805L5.67627 14.8805L5.67627 21.4113L1.5625 21.4113L1.5625 24.9636L5.67627 24.9636L5.67627 42.0046Q5.67627 44.3849 6.78711 45.9474Q7.89795 47.5099 9.59473 48.279Q11.2915 49.0358 13.0737 49.0358Q14.2456 49.0358 15.0024 48.8649Q15.7715 48.694 16.1987 48.5353L15.3442 44.7756Q15.0757 44.8244 14.624 44.9098Q14.1846 44.9831 13.4888 44.9831Q12.5732 44.9831 11.7432 44.6901Q10.9253 44.3971 10.4004 43.5182Q9.87549 42.6393 9.87549 40.8693L9.87549 24.9636L15.6982 24.9636ZM416.834 34.4728L428.76 34.4728L422.937 18.0666L422.657 18.0666L416.834 34.4728ZM63.4213 21.4113L63.4213 48.6818L67.6083 48.6818L67.6083 31.4211Q67.6083 28.6501 69.5614 26.8434Q71.5146 25.0368 74.5053 25.0368Q75.3354 25.0368 76.0922 25.1467Q76.849 25.2565 77.0565 25.3176L77.0565 21.0573Q76.7025 21.0207 76.0067 21.0085Q75.3232 20.9841 74.8593 20.9841Q72.4057 20.9841 70.4525 22.2414Q68.4994 23.4987 67.7548 25.5251L67.474 25.5251L67.474 21.4113L63.4213 21.4113ZM180.023 48.34Q182.135 49.3166 184.735 49.3166Q187.116 49.3166 188.764 48.6086Q190.411 47.9006 191.4 46.8874Q192.401 45.8742 192.828 44.9831L193.036 44.9831L193.036 48.6818L197.235 48.6818L197.235 30.7131Q197.235 27.466 196.161 25.5373Q195.099 23.5964 193.488 22.6442Q191.889 21.6799 190.167 21.3747Q188.458 21.0573 187.14 21.0573Q185.089 21.0573 182.965 21.6188Q180.841 22.1681 179.059 23.572Q177.277 24.9636 176.202 27.4416L180.182 28.8698Q180.878 27.3805 182.575 26.0622Q184.284 24.7438 187.286 24.7438Q190.18 24.7438 191.608 26.2087Q193.036 27.6613 193.036 30.2858L193.036 30.4323Q193.036 31.4455 192.316 31.8605Q191.608 32.2634 190.045 32.4343Q188.495 32.5929 186.005 32.9103Q184.113 33.1667 182.233 33.5817Q180.365 33.9968 178.815 34.839Q177.277 35.6691 176.349 37.134Q175.421 38.5988 175.421 40.9426Q175.421 43.6037 176.666 45.4836Q177.911 47.3512 180.023 48.34ZM237.379 47.5099Q240.235 49.2555 244.178 49.2555Q248.328 49.2555 251.209 47.3512Q254.09 45.447 255.042 42.3586L250.99 41.2233Q250.196 43.3596 248.414 44.4216Q246.644 45.4836 244.178 45.4836Q240.479 45.4836 238.148 43.1642Q235.816 40.8327 235.67 36.4626L255.47 36.4626L255.47 34.6926Q255.47 30.8718 254.456 28.2595Q253.443 25.6471 251.734 24.0602Q250.037 22.4733 247.962 21.7653Q245.887 21.0573 243.751 21.0573Q240.052 21.0573 237.293 22.8639Q234.535 24.6584 232.996 27.8688Q231.458 31.0671 231.458 35.2541Q231.458 39.4533 232.996 42.6027Q234.535 45.7521 237.379 47.5099ZM287.36 49.2555Q283.417 49.2555 280.561 47.5099Q277.716 45.7521 276.178 42.6027Q274.64 39.4533 274.64 35.2541Q274.64 31.0671 276.178 27.8688Q277.716 24.6584 280.475 22.8639Q283.234 21.0573 286.933 21.0573Q289.069 21.0573 291.144 21.7653Q293.219 22.4733 294.916 24.0602Q296.625 25.6471 297.638 28.2595Q298.652 30.8718 298.652 34.6926L298.652 36.4626L278.852 36.4626Q278.998 40.8327 281.33 43.1642Q283.661 45.4836 287.36 45.4836Q289.826 45.4836 291.596 44.4216Q293.378 43.3596 294.172 41.2233L298.224 42.3586Q297.272 45.447 294.391 47.3512Q291.51 49.2555 287.36 49.2555ZM347.089 59.4728Q342.524 59.4728 339.863 57.8127Q337.214 56.1525 335.944 54.0041L339.277 51.6603Q339.851 52.405 340.717 53.3693Q341.584 54.3459 343.098 55.0661Q344.623 55.7863 347.089 55.7863Q350.397 55.7863 352.546 54.1872Q354.694 52.5881 354.694 49.1823L354.694 43.6403L354.328 43.6403Q353.876 44.3849 353.022 45.4836Q352.18 46.57 350.605 47.4123Q349.042 48.2546 346.381 48.2546Q343.073 48.2546 340.449 46.6921Q337.836 45.1296 336.31 42.1511Q334.797 39.1603 334.797 34.9001Q334.797 30.7131 336.274 27.6003Q337.751 24.4753 340.375 22.7663Q343 21.0573 346.455 21.0573Q349.116 21.0573 350.678 21.9362Q352.253 22.8151 353.095 23.926Q353.937 25.0368 354.401 25.7448L354.829 25.7448L354.829 21.4113L358.881 21.4113L358.881 49.4631Q358.881 52.9787 357.282 55.1882Q355.695 57.3976 353.022 58.4352Q350.361 59.4728 347.089 59.4728ZM371.186 47.5099Q374.043 49.2555 377.985 49.2555Q382.136 49.2555 385.017 47.3512Q387.898 45.447 388.85 42.3586L384.797 41.2233Q384.003 43.3596 382.221 44.4216Q380.451 45.4836 377.985 45.4836Q374.287 45.4836 371.955 43.1642Q369.624 40.8327 369.477 36.4626L389.277 36.4626L389.277 34.6926Q389.277 30.8718 388.264 28.2595Q387.251 25.6471 385.542 24.0602Q383.845 22.4733 381.77 21.7653Q379.694 21.0573 377.558 21.0573Q373.859 21.0573 371.101 22.8639Q368.342 24.6584 366.804 27.8688Q365.266 31.0671 365.266 35.2541Q365.266 39.4533 366.804 42.6027Q368.342 45.7521 371.186 47.5099ZM51.5605 48.6818L51.5605 21.4113L55.7475 21.4113L55.7475 48.6818L51.5605 48.6818ZM133.954 21.4113L138.348 21.4113L144.244 42.2853L144.537 42.2853L150.36 21.4113L154.828 21.4113L160.577 42.2243L160.87 42.2243L166.766 21.4113L171.161 21.4113L162.86 48.6818L158.734 48.6818L152.765 27.7346L152.35 27.7346L146.381 48.6818L142.255 48.6818L133.954 21.4113ZM217.118 48.6818L212.858 48.6818L202.775 21.4113L207.316 21.4113L214.848 43.1398L215.129 43.1398L222.66 21.4113L227.201 21.4113L217.118 48.6818ZM92.8936 45.4836Q96.6777 45.4836 98.6919 42.5905Q100.706 39.6852 100.706 35.0466Q100.706 30.4689 98.7163 27.6491Q96.7388 24.8171 92.8936 24.8171Q90.2324 24.8171 88.4624 26.1843Q86.7046 27.5392 85.8257 29.8586Q84.9468 32.1657 84.9468 35.0466Q84.9468 37.9518 85.8379 40.3322Q86.7412 42.7004 88.499 44.092Q90.2691 45.4836 92.8936 45.4836ZM251.209 32.8493L235.67 32.8493Q235.816 30.7253 236.829 28.8942Q237.843 27.051 239.6 25.9401Q241.358 24.8171 243.751 24.8171Q247.157 24.8171 249.183 27.0998Q251.209 29.3825 251.209 32.8493ZM278.852 32.8493L294.391 32.8493Q294.391 29.3825 292.365 27.0998Q290.339 24.8171 286.933 24.8171Q284.54 24.8171 282.782 25.9401Q281.025 27.051 280.011 28.8942Q278.998 30.7253 278.852 32.8493ZM321.704 42.5905Q319.69 45.4836 315.906 45.4836Q313.281 45.4836 311.511 44.092Q309.753 42.7004 308.85 40.3322Q307.959 37.9518 307.959 35.0466Q307.959 32.1657 308.838 29.8586Q309.717 27.5392 311.475 26.1843Q313.245 24.8171 315.906 24.8171Q319.751 24.8171 321.729 27.6491Q323.718 30.4689 323.718 35.0466Q323.718 39.6852 321.704 42.5905ZM346.943 44.4948Q350.727 44.4948 352.741 41.9313Q354.755 39.3556 354.755 34.8268Q354.755 30.4079 352.766 27.6125Q350.788 24.8171 346.943 24.8171Q344.282 24.8171 342.512 26.1721Q340.754 27.5148 339.875 29.7975Q338.996 32.068 338.996 34.8268Q338.996 39.0993 340.998 41.7971Q343 44.4948 346.943 44.4948ZM385.017 32.8493L369.477 32.8493Q369.624 30.7253 370.637 28.8942Q371.65 27.051 373.408 25.9401Q375.166 24.8171 377.558 24.8171Q380.964 24.8171 382.99 27.0998Q385.017 29.3825 385.017 32.8493ZM128.691 35.0466L128.691 31.1403L112.786 31.1403L112.786 35.0466L128.691 35.0466ZM189.569 44.5803Q187.86 45.5568 185.37 45.5568Q182.868 45.5568 181.244 44.446Q179.62 43.3351 179.62 41.1501Q179.62 39.551 180.475 38.6232Q181.342 37.6955 182.745 37.2316Q184.161 36.7555 185.797 36.5358Q186.469 36.4504 187.555 36.3161Q188.654 36.1818 189.813 35.9987Q190.985 35.8034 191.876 35.5471Q192.78 35.2907 193.036 34.9733L193.036 38.8063Q193.036 40.5153 192.157 42.0656Q191.278 43.6037 189.569 44.5803Z" />
  </g>
</svg>