<?xml version="1.0" encoding="utf-8"?>
<svg width="1007.0001px" height="300px" viewBox="0 0 1007.0001 300" version="1.1" xmlns:xlink="http://www.w3.org/1999/xlink" xmlns="http://www.w3.org/2000/svg">
  <defs>
    <path d="M827 0L887 0L887 156L827 156L827 0Z" id="path_1" />
    <path d="M947 49L1007 49L1007 264L947 264L947 49Z" id="path_2" />
    <path d="M857 192L917 192L917 300L857 300L857 192Z" id="path_3" />
    <clipPath id="clip_1">
      <use xlink:href="#path_1" />
    </clipPath>
    <clipPath id="clip_2">
      <use xlink:href="#path_2" />
    </clipPath>
    <clipPath id="clip_3">
      <use xlink:href="#path_3" />
    </clipPath>
  </defs>
  <g id="Rectangle">
    <use stroke="none" fill="#90A4AE" xlink:href="#path_1" fill-rule="evenodd" />
    <g clip-path="url(#clip_1)">
      <use xlink:href="#path_1" fill="none" stroke="#000000" stroke-width="6" />
    </g>
  </g>
  <g id="Rectangle-3">
    <use stroke="none" fill="#90A4AE" xlink:href="#path_2" fill-rule="evenodd" />
    <g clip-path="url(#clip_2)">
      <use xlink:href="#path_2" fill="none" stroke="#000000" stroke-width="6" />
    </g>
  </g>
  <g id="Rectangle-4">
    <use stroke="none" fill="#90A4AE" xlink:href="#path_3" fill-rule="evenodd" />
    <g clip-path="url(#clip_3)">
      <use xlink:href="#path_3" fill="none" stroke="#000000" stroke-width="6" />
    </g>
  </g>
  <g stroke="#000000" stroke-width="1" id="dxdelta" fill="#90A4AE" transform="translate(0 5)">
    <path d="M62.1973 215.524Q47.2119 215.524 35.7178 207.897Q24.2236 200.271 17.7246 186.359Q11.2256 172.395 11.2256 153.327Q11.2256 134.421 17.7246 120.51Q24.2236 106.599 35.7715 99.0254Q47.3193 91.4521 62.5195 91.4521Q74.2285 91.4521 81.0498 95.3193Q87.8711 99.1865 91.5234 104.074Q95.1758 108.962 97.1631 112.077L98.7744 112.077L98.7744 52.9951L117.197 52.9951L117.197 213L99.3652 213L99.3652 194.577L97.1631 194.577Q95.1758 197.854 91.416 202.849Q87.6562 207.79 80.6738 211.657Q73.7451 215.524 62.1973 215.524ZM291.03 207.897Q302.524 215.524 317.51 215.524Q329.058 215.524 335.986 211.657Q342.969 207.79 346.729 202.849Q350.488 197.854 352.476 194.577L354.678 194.577L354.678 213L372.51 213L372.51 52.9951L354.087 52.9951L354.087 112.077L352.476 112.077Q350.488 108.962 346.836 104.074Q343.184 99.1865 336.362 95.3193Q329.541 91.4521 317.832 91.4521Q302.632 91.4521 291.084 99.0254Q279.536 106.599 273.037 120.51Q266.538 134.421 266.538 153.327Q266.538 172.395 273.037 186.359Q279.536 200.271 291.03 207.897ZM555.288 213L555.288 52.9951L536.865 52.9951L536.865 213L555.288 213ZM641.26 93.0098L641.26 108.64L615.64 108.64L615.64 178.625Q615.64 186.413 617.949 190.28Q620.259 194.147 623.857 195.437Q627.51 196.726 631.538 196.726Q634.6 196.726 636.533 196.403Q638.521 196.027 639.702 195.812L643.462 212.355Q641.582 213.054 638.198 213.806Q634.868 214.558 629.712 214.558Q621.87 214.558 614.404 211.228Q606.938 207.844 602.051 200.969Q597.163 194.094 597.163 183.62L597.163 108.64L579.062 108.64L579.062 93.0098L597.163 93.0098L597.163 64.2744L615.64 64.2744L615.64 93.0098L641.26 93.0098ZM459.067 215.524Q441.719 215.524 429.15 207.844Q416.636 200.109 409.868 186.252Q403.101 172.395 403.101 153.918Q403.101 135.495 409.868 121.423Q416.636 107.297 428.774 99.4014Q440.913 91.4521 457.188 91.4521Q466.587 91.4521 475.718 94.5674Q484.849 97.6826 492.314 104.665Q499.834 111.647 504.292 123.142Q508.75 134.636 508.75 151.447L508.75 159.235L421.631 159.235Q422.275 178.464 432.534 188.723Q442.793 198.928 459.067 198.928Q469.917 198.928 477.705 194.255Q485.547 189.582 489.038 180.183L506.87 185.178Q502.681 198.767 490.005 207.146Q477.329 215.524 459.067 215.524ZM683.662 211.496Q692.954 215.793 704.395 215.793Q714.868 215.793 722.119 212.678Q729.37 209.562 733.721 205.104Q738.125 200.646 740.005 196.726L740.918 196.726L740.918 213L759.395 213L759.395 133.938Q759.395 119.65 754.668 111.164Q749.995 102.624 742.905 98.4346Q735.869 94.1914 728.296 92.8486Q720.776 91.4521 714.976 91.4521Q705.952 91.4521 696.606 93.9229Q687.261 96.3398 679.419 102.517Q671.577 108.64 666.851 119.543L684.36 125.827Q687.422 119.274 694.888 113.474Q702.407 107.673 715.62 107.673Q728.35 107.673 734.634 114.118Q740.918 120.51 740.918 132.058L740.918 132.702Q740.918 137.16 737.749 138.986Q734.634 140.759 727.759 141.511Q720.938 142.209 709.98 143.605Q701.655 144.733 693.384 146.56Q685.166 148.386 678.345 152.092Q671.577 155.744 667.495 162.189Q663.413 168.635 663.413 178.947Q663.413 190.656 668.892 198.928Q674.37 207.146 683.662 211.496ZM167.178 93.0098L195.913 142.048L224.702 93.0098L245.918 93.0098L207.192 153.005L245.918 213L224.702 213L195.913 166.433L167.178 213L145.962 213L184.043 153.005L145.962 93.0098L167.178 93.0098ZM64.668 198.928Q81.3184 198.928 90.1807 186.198Q99.043 173.415 99.043 153.005Q99.043 132.863 90.2881 120.456Q81.5869 107.995 64.668 107.995Q52.959 107.995 45.1709 114.011Q37.4365 119.973 33.5693 130.178Q29.7021 140.329 29.7021 153.005Q29.7021 165.788 33.623 176.262Q37.5977 186.682 45.332 192.805Q53.1201 198.928 64.668 198.928ZM345.493 186.198Q336.631 198.928 319.98 198.928Q308.433 198.928 300.645 192.805Q292.91 186.682 288.936 176.262Q285.015 165.788 285.015 153.005Q285.015 140.329 288.882 130.178Q292.749 119.973 300.483 114.011Q308.271 107.995 319.98 107.995Q336.899 107.995 345.601 120.456Q354.355 132.863 354.355 153.005Q354.355 173.415 345.493 186.198ZM421.631 143.337L490.005 143.337Q490.005 128.083 481.089 118.039Q472.173 107.995 457.188 107.995Q446.66 107.995 438.926 112.937Q431.191 117.824 426.733 125.935Q422.275 133.991 421.631 143.337ZM725.664 194.953Q718.145 199.25 707.188 199.25Q696.177 199.25 689.033 194.362Q681.89 189.475 681.89 179.86Q681.89 172.824 685.649 168.742Q689.463 164.66 695.64 162.619Q701.87 160.524 709.067 159.558Q712.021 159.182 716.802 158.591Q721.636 158 726.738 157.194Q731.895 156.335 735.815 155.207Q739.79 154.079 740.918 152.683L740.918 169.548Q740.918 177.067 737.051 183.889Q733.184 190.656 725.664 194.953Z" />
  </g>
  <g stroke="#000000" stroke-width="1" id="strategic-advisory" fill="#90A4AE" transform="translate(314.0001 239)">
    <path d="M174.862 16.8581Q173.629 16.8581 172.75 16.028Q171.871 15.1979 171.871 14.0261Q171.871 12.8542 172.75 12.0241Q173.629 11.1818 174.862 11.1818Q176.083 11.1818 176.962 12.0241Q177.84 12.8542 177.84 14.0261Q177.84 15.1979 176.962 16.028Q176.083 16.8581 174.862 16.8581ZM313.66 16.028Q314.539 16.8581 315.771 16.8581Q316.992 16.8581 317.871 16.028Q318.75 15.1979 318.75 14.0261Q318.75 12.8542 317.871 12.0241Q316.992 11.1818 315.771 11.1818Q314.539 11.1818 313.66 12.0241Q312.781 12.8542 312.781 14.0261Q312.781 15.1979 313.66 16.028ZM259.042 47.5221Q261.654 49.2555 265.06 49.2555Q267.684 49.2555 269.259 48.3766Q270.846 47.4977 271.701 46.3747Q272.555 45.2394 273.007 44.4948L273.507 44.4948L273.507 48.6818L277.56 48.6818L277.56 12.3171L273.373 12.3171L273.373 25.7448L273.007 25.7448Q272.555 25.0368 271.725 23.926Q270.895 22.8151 269.345 21.9362Q267.794 21.0573 265.133 21.0573Q261.679 21.0573 259.054 22.7785Q256.43 24.4997 254.953 27.6613Q253.475 30.8229 253.475 35.1198Q253.475 39.4533 254.953 42.6271Q256.43 45.7887 259.042 47.5221ZM41.8347 21.4113L41.8347 24.9636L36.0119 24.9636L36.0119 40.8693Q36.0119 42.6393 36.5368 43.5182Q37.0618 44.3971 37.8796 44.6901Q38.7097 44.9831 39.6252 44.9831Q40.321 44.9831 40.7605 44.9098Q41.2121 44.8244 41.4807 44.7756L42.3352 48.5353Q41.9079 48.694 41.1389 48.8649Q40.3821 49.0358 39.2102 49.0358Q37.428 49.0358 35.7312 48.279Q34.0344 47.5099 32.9236 45.9474Q31.8127 44.3849 31.8127 42.0046L31.8127 24.9636L27.699 24.9636L27.699 21.4113L31.8127 21.4113L31.8127 14.8805L36.0119 14.8805L36.0119 21.4113L41.8347 21.4113ZM106.821 24.9636L106.821 21.4113L100.998 21.4113L100.998 14.8805L96.7988 14.8805L96.7988 21.4113L92.685 21.4113L92.685 24.9636L96.7988 24.9636L96.7988 42.0046Q96.7988 44.3849 97.9096 45.9474Q99.0204 47.5099 100.717 48.279Q102.414 49.0358 104.196 49.0358Q105.368 49.0358 106.125 48.8649Q106.894 48.694 107.321 48.5353L106.467 44.7756Q106.198 44.8244 105.747 44.9098Q105.307 44.9831 104.611 44.9831Q103.696 44.9831 102.866 44.6901Q102.048 44.3971 101.523 43.5182Q100.998 42.6393 100.998 40.8693L100.998 24.9636L106.821 24.9636ZM48.1514 21.4113L48.1514 48.6818L52.3384 48.6818L52.3384 31.4211Q52.3384 28.6501 54.2915 26.8434Q56.2446 25.0368 59.2353 25.0368Q60.0654 25.0368 60.8223 25.1467Q61.5791 25.2565 61.7866 25.3176L61.7866 21.0573Q61.4326 21.0207 60.7368 21.0085Q60.0532 20.9841 59.5893 20.9841Q57.1357 20.9841 55.1826 22.2414Q53.2295 23.4987 52.4848 25.5251L52.2041 25.5251L52.2041 21.4113L48.1514 21.4113ZM381.462 21.4113L385.515 21.4113L385.515 25.5251L385.796 25.5251Q386.54 23.4987 388.493 22.2414Q390.447 20.9841 392.9 20.9841Q393.364 20.9841 394.048 21.0085Q394.743 21.0207 395.097 21.0573L395.097 25.3176Q394.89 25.2565 394.133 25.1467Q393.376 25.0368 392.546 25.0368Q389.555 25.0368 387.602 26.8434Q385.649 28.6501 385.649 31.4211L385.649 48.6818L381.462 48.6818L381.462 21.4113ZM23.1567 27.5148L19.3848 28.5768Q18.8354 27.1608 17.5415 25.9157Q16.2476 24.6706 13.4888 24.6706Q10.9863 24.6706 9.32617 25.818Q7.66602 26.9655 7.66602 28.7233Q7.66602 30.2858 8.80127 31.1891Q9.94873 32.0925 12.3535 32.7028L16.4062 33.6916Q23.645 35.4738 23.645 41.0768Q23.645 43.4206 22.3022 45.2761Q20.9717 47.1193 18.5669 48.1935Q16.1743 49.2555 13.0005 49.2555Q8.82568 49.2555 6.09131 47.4489Q3.35693 45.6301 2.62451 42.1511L6.604 41.1501Q7.72705 45.5568 12.9272 45.5568Q15.8569 45.5568 17.5903 44.3117Q19.3237 43.0544 19.3237 41.2966Q19.3237 38.4035 15.271 37.4636L10.73 36.3893Q6.98242 35.5104 5.22461 33.6428Q3.479 31.7629 3.479 28.943Q3.479 26.6237 4.78516 24.8537Q6.09131 23.0837 8.34961 22.0705Q10.6201 21.0573 13.4888 21.0573Q17.5415 21.0573 19.8608 22.8395Q22.1802 24.6096 23.1567 27.5148ZM74.7916 49.3166Q72.1915 49.3166 70.0797 48.34Q67.9679 47.3512 66.7227 45.4836Q65.4776 43.6037 65.4776 40.9426Q65.4776 38.5988 66.4054 37.134Q67.3331 35.6691 68.8712 34.839Q70.4215 33.9968 72.2892 33.5817Q74.169 33.1667 76.0611 32.9103Q78.5514 32.5929 80.1017 32.4343Q81.6642 32.2634 82.3722 31.8605Q83.0924 31.4455 83.0924 30.4323L83.0924 30.2858Q83.0924 27.6613 81.6642 26.2087Q80.2359 24.7438 77.3429 24.7438Q74.3399 24.7438 72.631 26.0622Q70.9342 27.3805 70.2384 28.8698L66.2589 27.4416Q67.3331 24.9636 69.1153 23.572Q70.8976 22.1681 73.0216 21.6188Q75.1456 21.0573 77.1964 21.0573Q78.5147 21.0573 80.2237 21.3747Q81.9449 21.6799 83.544 22.6442Q85.1554 23.5964 86.2174 25.5373Q87.2916 27.466 87.2916 30.7131L87.2916 48.6818L83.0924 48.6818L83.0924 44.9831L82.8849 44.9831Q82.4576 45.8742 81.4566 46.8874Q80.4679 47.9006 78.8199 48.6086Q77.172 49.3166 74.7916 49.3166ZM124.575 49.2555Q120.632 49.2555 117.776 47.5099Q114.932 45.7521 113.394 42.6027Q111.856 39.4533 111.856 35.2541Q111.856 31.0671 113.394 27.8688Q114.932 24.6584 117.691 22.8639Q120.449 21.0573 124.148 21.0573Q126.284 21.0573 128.36 21.7653Q130.435 22.4733 132.132 24.0602Q133.84 25.6471 134.854 28.2595Q135.867 30.8718 135.867 34.6926L135.867 36.4626L116.067 36.4626Q116.214 40.8327 118.545 43.1642Q120.877 45.4836 124.575 45.4836Q127.041 45.4836 128.811 44.4216Q130.593 43.3596 131.387 41.2233L135.44 42.3586Q134.487 45.447 131.607 47.3512Q128.726 49.2555 124.575 49.2555ZM146.041 57.8127Q148.702 59.4728 153.268 59.4728Q156.539 59.4728 159.2 58.4352Q161.874 57.3976 163.46 55.1882Q165.06 52.9787 165.06 49.4631L165.06 21.4113L161.007 21.4113L161.007 25.7448L160.58 25.7448Q160.116 25.0368 159.273 23.926Q158.431 22.8151 156.856 21.9362Q155.294 21.0573 152.633 21.0573Q149.178 21.0573 146.554 22.7663Q143.929 24.4753 142.452 27.6003Q140.975 30.7131 140.975 34.9001Q140.975 39.1603 142.489 42.1511Q144.015 45.1296 146.627 46.6921Q149.251 48.2546 152.56 48.2546Q155.221 48.2546 156.783 47.4123Q158.358 46.57 159.2 45.4836Q160.055 44.3849 160.506 43.6403L160.873 43.6403L160.873 49.1823Q160.873 52.5881 158.724 54.1872Q156.576 55.7863 153.268 55.7863Q150.802 55.7863 149.276 55.0661Q147.762 54.3459 146.895 53.3693Q146.029 52.405 145.455 51.6603L142.123 54.0041Q143.392 56.1525 146.041 57.8127ZM189.066 47.4489Q191.837 49.2555 195.67 49.2555Q198.686 49.2555 200.968 48.1325Q203.251 46.9972 204.643 45.0685Q206.034 43.1398 206.388 40.7228L202.201 40.7228Q201.615 42.9689 199.87 44.2262Q198.124 45.4836 195.67 45.4836Q191.935 45.4836 189.713 42.6393Q187.504 39.7829 187.504 35.0466Q187.504 30.4079 189.75 27.6125Q191.996 24.8171 195.67 24.8171Q198.441 24.8171 200.077 26.2697Q201.725 27.7101 202.201 29.5778L206.388 29.5778Q206.034 27.0143 204.557 25.0978Q203.092 23.1813 200.785 22.1193Q198.478 21.0573 195.597 21.0573Q191.899 21.0573 189.14 22.8639Q186.381 24.6584 184.843 27.8444Q183.305 31.0304 183.305 35.193Q183.305 39.2702 184.794 42.4562Q186.295 45.6301 189.066 47.4489ZM234.593 49.3166Q231.993 49.3166 229.881 48.34Q227.77 47.3512 226.524 45.4836Q225.279 43.6037 225.279 40.9426Q225.279 38.5988 226.207 37.134Q227.135 35.6691 228.673 34.839Q230.223 33.9968 232.091 33.5817Q233.971 33.1667 235.863 32.9103Q238.353 32.5929 239.903 32.4343Q241.466 32.2634 242.174 31.8605Q242.894 31.4455 242.894 30.4323L242.894 30.2858Q242.894 27.6613 241.466 26.2087Q240.038 24.7438 237.145 24.7438Q234.142 24.7438 232.433 26.0622Q230.736 27.3805 230.04 28.8698L226.061 27.4416Q227.135 24.9636 228.917 23.572Q230.699 22.1681 232.823 21.6188Q234.947 21.0573 236.998 21.0573Q238.316 21.0573 240.025 21.3747Q241.747 21.6799 243.346 22.6442Q244.957 23.5964 246.019 25.5373Q247.093 27.466 247.093 30.7131L247.093 48.6818L242.894 48.6818L242.894 44.9831L242.687 44.9831Q242.259 45.8742 241.258 46.8874Q240.27 47.9006 238.622 48.6086Q236.974 49.3166 234.593 49.3166ZM344.82 27.5148L341.048 28.5768Q340.499 27.1608 339.205 25.9157Q337.911 24.6706 335.152 24.6706Q332.649 24.6706 330.989 25.818Q329.329 26.9655 329.329 28.7233Q329.329 30.2858 330.464 31.1891Q331.612 32.0925 334.017 32.7028L338.069 33.6916Q345.308 35.4738 345.308 41.0768Q345.308 43.4206 343.965 45.2761Q342.635 47.1193 340.23 48.1935Q337.837 49.2555 334.664 49.2555Q330.489 49.2555 327.754 47.4489Q325.02 45.6301 324.288 42.1511L328.267 41.1501Q329.39 45.5568 334.59 45.5568Q337.52 45.5568 339.253 44.3117Q340.987 43.0544 340.987 41.2966Q340.987 38.4035 336.934 37.4636L332.393 36.3893Q328.646 35.5104 326.888 33.6428Q325.142 31.7629 325.142 28.943Q325.142 26.6237 326.448 24.8537Q327.754 23.0837 330.013 22.0705Q332.283 21.0573 335.152 21.0573Q339.205 21.0573 341.524 22.8395Q343.843 24.6096 344.82 27.5148ZM356.235 47.4977Q359.018 49.2555 362.717 49.2555Q366.403 49.2555 369.186 47.4977Q371.969 45.7399 373.52 42.5783Q375.07 39.4167 375.07 35.193Q375.07 30.9206 373.52 27.7468Q371.969 24.5729 369.186 22.8151Q366.403 21.0573 362.717 21.0573Q359.018 21.0573 356.235 22.8151Q353.464 24.5729 351.901 27.7468Q350.351 30.9206 350.351 35.193Q350.351 39.4167 351.901 42.5783Q353.464 45.7399 356.235 47.4977ZM172.726 48.6818L172.726 21.4113L176.913 21.4113L176.913 48.6818L172.726 48.6818ZM298.013 48.6818L293.753 48.6818L283.67 21.4113L288.211 21.4113L295.743 43.1398L296.024 43.1398L303.555 21.4113L308.096 21.4113L298.013 48.6818ZM317.822 21.4113L313.635 21.4113L313.635 48.6818L317.822 48.6818L317.822 21.4113ZM400.864 58.7404Q401.706 58.9113 402.768 58.9113Q408.469 58.9113 410.8 52.6613L422.372 21.4113L417.831 21.4113L410.3 43.1398L410.019 43.1398L402.487 21.4113L397.946 21.4113L408.029 48.8283L407.248 50.9523Q406.479 53.0275 405.563 53.9553Q404.648 54.8952 403.476 55.0051Q402.304 55.1149 400.778 54.7243L399.716 58.4108Q400.034 58.5695 400.864 58.7404ZM116.067 32.8493L131.607 32.8493Q131.607 29.3825 129.58 27.0998Q127.554 24.8171 124.148 24.8171Q121.756 24.8171 119.998 25.9401Q118.24 27.051 117.227 28.8942Q116.214 30.7253 116.067 32.8493ZM158.919 41.9313Q156.905 44.4948 153.121 44.4948Q149.178 44.4948 147.176 41.7971Q145.174 39.0993 145.174 34.8268Q145.174 32.068 146.053 29.7975Q146.932 27.5148 148.69 26.1721Q150.46 24.8171 153.121 24.8171Q156.966 24.8171 158.944 27.6125Q160.934 30.4079 160.934 34.8268Q160.934 39.3556 158.919 41.9313ZM271.42 42.5905Q269.406 45.4836 265.621 45.4836Q262.997 45.4836 261.227 44.092Q259.469 42.7004 258.566 40.3322Q257.675 37.9518 257.675 35.0466Q257.675 32.1657 258.554 29.8586Q259.432 27.5392 261.19 26.1843Q262.96 24.8171 265.621 24.8171Q269.467 24.8171 271.444 27.6491Q273.434 30.4689 273.434 35.0466Q273.434 39.6852 271.42 42.5905ZM367.331 44.0554Q365.524 45.4836 362.717 45.4836Q359.909 45.4836 358.09 44.0554Q356.283 42.6149 355.417 40.2712Q354.55 37.9274 354.55 35.193Q354.55 32.4587 355.417 30.1027Q356.283 27.7346 358.09 26.2819Q359.909 24.8171 362.717 24.8171Q365.524 24.8171 367.331 26.2819Q369.137 27.7346 370.004 30.1027Q370.883 32.4587 370.883 35.193Q370.883 37.9274 370.004 40.2712Q369.137 42.6149 367.331 44.0554ZM75.4264 45.5568Q77.9166 45.5568 79.6256 44.5803Q81.3346 43.6037 82.2135 42.0656Q83.0924 40.5153 83.0924 38.8063L83.0924 34.9733Q82.836 35.2907 81.9327 35.5471Q81.0416 35.8034 79.8697 35.9987Q78.7101 36.1818 77.6114 36.3161Q76.525 36.4504 75.8536 36.5358Q74.2179 36.7555 72.8018 37.2316Q71.398 37.6955 70.5313 38.6232Q69.6768 39.551 69.6768 41.1501Q69.6768 43.3351 71.3004 44.446Q72.9239 45.5568 75.4264 45.5568ZM235.228 45.5568Q237.718 45.5568 239.427 44.5803Q241.136 43.6037 242.015 42.0656Q242.894 40.5153 242.894 38.8063L242.894 34.9733Q242.638 35.2907 241.734 35.5471Q240.843 35.8034 239.671 35.9987Q238.512 36.1818 237.413 36.3161Q236.327 36.4504 235.655 36.5358Q234.02 36.7555 232.604 37.2316Q231.2 37.6955 230.333 38.6232Q229.479 39.551 229.479 41.1501Q229.479 43.3351 231.102 44.446Q232.726 45.5568 235.228 45.5568Z" />
  </g>
</svg>