<?xml version="1.0" encoding="utf-8"?>
<svg width="585px" height="300px" viewBox="0 0 585 300" version="1.1" xmlns:xlink="http://www.w3.org/1999/xlink" xmlns="http://www.w3.org/2000/svg">
  <defs>
    <path d="M405 0L465 0L465 156L405 156L405 0Z" id="path_1" />
    <path d="M525 49L585 49L585 264L525 264L525 49Z" id="path_2" />
    <path d="M435 192L495 192L495 300L435 300L435 192Z" id="path_3" />
    <clipPath id="clip_1">
      <use xlink:href="#path_1" />
    </clipPath>
    <clipPath id="clip_2">
      <use xlink:href="#path_2" />
    </clipPath>
    <clipPath id="clip_3">
      <use xlink:href="#path_3" />
    </clipPath>
  </defs>
  <g id="Rectangle">
    <use stroke="none" fill="#90A4AE" xlink:href="#path_1" fill-rule="evenodd" />
    <g clip-path="url(#clip_1)">
      <use xlink:href="#path_1" fill="none" stroke="#000000" stroke-width="6" />
    </g>
  </g>
  <g id="Rectangle-3">
    <use stroke="none" fill="#90A4AE" xlink:href="#path_2" fill-rule="evenodd" />
    <g clip-path="url(#clip_2)">
      <use xlink:href="#path_2" fill="none" stroke="#000000" stroke-width="6" />
    </g>
  </g>
  <g id="Rectangle-4">
    <use stroke="none" fill="#90A4AE" xlink:href="#path_3" fill-rule="evenodd" />
    <g clip-path="url(#clip_3)">
      <use xlink:href="#path_3" fill="none" stroke="#000000" stroke-width="6" />
    </g>
  </g>
  <g stroke="#000000" stroke-width="1" id="dxδ" fill="#90A4AE" transform="translate(0 23)">
    <path d="M286.787 54.0693Q275.938 62.4482 275.938 76.3057Q275.938 86.6719 281.846 94.2451Q287.754 101.818 297.798 105.793L297.798 106.438Q288.291 108.801 280.288 115.837Q272.339 122.819 267.559 133.239Q262.832 143.605 262.832 156.12L262.832 158.322Q262.832 174.382 268.955 187.272Q275.078 200.163 286.733 207.683Q298.442 215.202 314.985 215.202Q331.26 215.202 342.861 207.683Q354.463 200.163 360.64 187.272Q366.87 174.382 366.87 158.322L366.87 156.12Q366.87 134.582 356.021 119.597Q345.225 104.558 321.538 96.125Q306.821 90.7539 302.31 85.5439Q297.798 80.334 297.798 76.1445Q297.798 70.5586 302.793 67.0137Q307.788 63.4688 317.188 63.4688Q325.137 63.4688 333.193 65.6709Q341.25 67.8193 345.923 69.6992L345.923 51.2764Q338.672 48.4834 331.958 47.0869Q325.298 45.6367 316.865 45.6367Q297.637 45.6367 286.787 54.0693ZM62.1973 215.524Q47.2119 215.524 35.7178 207.897Q24.2236 200.271 17.7246 186.359Q11.2256 172.395 11.2256 153.327Q11.2256 134.421 17.7246 120.51Q24.2236 106.599 35.7715 99.0254Q47.3193 91.4521 62.5195 91.4521Q74.2285 91.4521 81.0498 95.3193Q87.8711 99.1865 91.5234 104.074Q95.1758 108.962 97.1631 112.077L98.7744 112.077L98.7744 52.9951L117.197 52.9951L117.197 213L99.3652 213L99.3652 194.577L97.1631 194.577Q95.1758 197.854 91.416 202.849Q87.6562 207.79 80.6738 211.657Q73.7451 215.524 62.1973 215.524ZM167.178 93.0098L195.913 142.048L224.702 93.0098L245.918 93.0098L207.192 153.005L245.918 213L224.702 213L195.913 166.433L167.178 213L145.962 213L184.043 153.005L145.962 93.0098L167.178 93.0098ZM64.668 198.928Q81.3184 198.928 90.1807 186.198Q99.043 173.415 99.043 153.005Q99.043 132.863 90.2881 120.456Q81.5869 107.995 64.668 107.995Q52.959 107.995 45.1709 114.011Q37.4365 119.973 33.5693 130.178Q29.7021 140.329 29.7021 153.005Q29.7021 165.788 33.623 176.262Q37.5977 186.682 45.332 192.805Q53.1201 198.928 64.668 198.928ZM284.37 158.322L284.37 156.12Q284.37 145.324 287.593 136.193Q290.869 127.009 297.583 121.423Q304.351 115.837 314.985 115.837Q324.224 117.663 330.991 124.001Q337.812 130.285 341.572 138.825Q345.332 147.365 345.332 156.12L345.332 158.322Q345.332 169.118 342.109 178.142Q338.887 187.165 332.173 192.59Q325.459 198.015 314.985 198.015Q304.351 198.015 297.583 192.59Q290.869 187.165 287.593 178.142Q284.37 169.118 284.37 158.322Z" />
  </g>
</svg>